<svg viewBox="0 0 56 56" xmlns="http://www.w3.org/2000/svg" xmlns:xlink="http://www.w3.org/1999/xlink" width="56.000000" height="56.000000" fill="none">
	<rect id="MinecraftSkin" width="56.000000" height="56.000000" x="0.000000" y="0.000000" />
	<rect id="矩形 64" width="7.000000" height="7.000000" x="49.000000" y="49.000000" fill="rgb(255,189,105)" />
	<rect id="矩形 63" width="7.000000" height="7.000000" x="42.000000" y="49.000000" fill="rgb(255,189,105)" />
	<rect id="矩形 62" width="7.000000" height="7.000000" x="35.000000" y="49.000000" fill="rgb(255,189,105)" />
	<rect id="矩形 61" width="7.000000" height="7.000000" x="7.000000" y="0.000000" fill="rgb(43,30,13)" />
	<rect id="矩形 61" width="7.000000" height="7.000000" x="7.000000" y="0.000000" fill="rgb(73,53,29)" />
	<rect id="矩形 60" width="7.000000" height="7.000000" x="14.000000" y="0.000000" fill="rgb(85,61,32)" />
	<rect id="矩形 59" width="7.000000" height="7.000000" x="21.000000" y="0.000000" fill="rgb(40,28,11)" />
	<rect id="矩形 59" width="7.000000" height="7.000000" x="21.000000" y="0.000000" fill="rgb(85,61,32)" />
	<rect id="矩形 58" width="7.000000" height="7.000000" x="28.000000" y="0.000000" fill="rgb(36,24,8)" />
	<rect id="矩形 58" width="7.000000" height="7.000000" x="28.000000" y="0.000000" fill="rgb(85,61,32)" />
	<rect id="矩形 57" width="7.000000" height="7.000000" x="35.000000" y="0.000000" fill="rgb(38,26,10)" />
	<rect id="矩形 57" width="7.000000" height="7.000000" x="35.000000" y="0.000000" fill="rgb(85,61,32)" />
	<rect id="矩形 56" width="7.000000" height="7.000000" x="42.000000" y="0.000000" fill="rgb(43,30,13)" />
	<rect id="矩形 56" width="7.000000" height="7.000000" x="42.000000" y="0.000000" fill="rgb(85,61,32)" />
	<rect id="矩形 55" width="7.000000" height="7.000000" x="49.000000" y="0.000000" fill="rgb(73,53,29)" />
	<rect id="矩形 54" width="7.000000" height="7.000000" x="0.000000" y="7.000000" fill="rgb(61,45,25)" />
	<rect id="矩形 53" width="7.000000" height="7.000000" x="7.000000" y="7.000000" fill="rgb(43,30,13)" />
	<rect id="矩形 53" width="7.000000" height="7.000000" x="7.000000" y="7.000000" fill="rgb(61,45,25)" />
	<rect id="矩形 52" width="7.000000" height="7.000000" x="14.000000" y="7.000000" fill="rgb(61,42,28)" />
	<rect id="矩形 51" width="7.000000" height="7.000000" x="21.000000" y="7.000000" fill="rgb(73,53,29)" />
	<rect id="矩形 50" width="7.000000" height="7.000000" x="28.000000" y="7.000000" fill="rgb(66,42,18)" />
	<rect id="矩形 50" width="7.000000" height="7.000000" x="28.000000" y="7.000000" fill="rgb(73,53,29)" />
	<rect id="矩形 49" width="7.000000" height="7.000000" x="35.000000" y="7.000000" fill="rgb(63,42,21)" />
	<rect id="矩形 49" width="7.000000" height="7.000000" x="35.000000" y="7.000000" fill="rgb(73,53,29)" />
	<rect id="矩形 48" width="7.000000" height="7.000000" x="42.000000" y="7.000000" fill="rgb(44,30,14)" />
	<rect id="矩形 48" width="7.000000" height="7.000000" x="42.000000" y="7.000000" fill="rgb(73,53,29)" />
	<rect id="矩形 47" width="7.000000" height="7.000000" x="49.000000" y="7.000000" fill="rgb(61,45,25)" />
	<rect id="矩形 46" width="7.000000" height="7.000000" x="28.000000" y="49.000000" fill="rgb(255,189,105)" />
	<rect id="矩形 45" width="7.000000" height="7.000000" x="0.000000" y="14.000000" fill="rgb(49,37,22)" />
	<rect id="矩形 44" width="7.000000" height="7.000000" x="7.000000" y="14.000000" fill="rgb(61,42,28)" />
	<rect id="矩形 43" width="7.000000" height="7.000000" x="14.000000" y="14.000000" fill="rgb(61,45,25)" />
	<rect id="矩形 42" width="7.000000" height="7.000000" x="21.000000" y="14.000000" fill="rgb(61,42,28)" />
	<rect id="矩形 41" width="7.000000" height="7.000000" x="28.000000" y="14.000000" fill="rgb(189,139,114)" />
	<rect id="矩形 41" width="7.000000" height="7.000000" x="28.000000" y="14.000000" fill="rgb(61,42,28)" />
	<rect id="矩形 40" width="7.000000" height="7.000000" x="35.000000" y="14.000000" fill="rgb(189,142,116)" />
	<rect id="矩形 40" width="7.000000" height="7.000000" x="35.000000" y="14.000000" fill="rgb(61,45,25)" />
	<rect id="矩形 39" width="7.000000" height="7.000000" x="42.000000" y="14.000000" fill="rgb(61,45,25)" />
	<rect id="矩形 38" width="7.000000" height="7.000000" x="49.000000" y="14.000000" fill="rgb(49,37,22)" />
	<rect id="矩形 37" width="7.000000" height="7.000000" x="0.000000" y="21.000000" fill="rgb(38,29,18)" />
	<rect id="矩形 36" width="7.000000" height="7.000000" x="7.000000" y="21.000000" fill="rgb(49,37,22)" />
	<rect id="矩形 35" width="7.000000" height="7.000000" x="14.000000" y="21.000000" fill="rgb(255,189,105)" />
	<rect id="矩形 34" width="7.000000" height="7.000000" x="21.000000" y="21.000000" fill="rgb(49,37,22)" />
	<rect id="矩形 33" width="7.000000" height="7.000000" x="28.000000" y="21.000000" fill="rgb(38,29,18)" />
	<rect id="矩形 33" width="7.000000" height="7.000000" x="28.000000" y="21.000000" fill="rgb(38,29,18)" />
	<rect id="矩形 32" width="7.000000" height="7.000000" x="35.000000" y="21.000000" fill="rgb(49,37,22)" />
	<rect id="矩形 31" width="7.000000" height="7.000000" x="42.000000" y="21.000000" fill="rgb(156,105,76)" />
	<rect id="矩形 31" width="7.000000" height="7.000000" x="42.000000" y="21.000000" fill="rgb(49,37,22)" />
	<rect id="矩形 30" width="7.000000" height="7.000000" x="49.000000" y="21.000000" fill="rgb(38,29,18)" />
	<rect id="矩形 29" width="7.000000" height="7.000000" x="0.000000" y="28.000000" fill="rgb(26,21,15)" />
	<rect id="矩形 28" width="7.000000" height="7.000000" x="7.000000" y="28.000000" fill="rgb(249,255,222)" />
	<rect id="矩形 27" width="7.000000" height="7.000000" x="14.000000" y="28.000000" fill="rgb(11,36,251)" />
	<rect id="矩形 65" width="7.000000" height="7.000000" x="21.000000" y="28.000000" fill="rgb(255,189,105)" />
	<rect id="矩形 25" width="7.000000" height="7.000000" x="28.000000" y="28.000000" fill="rgb(38,29,18)" />
	<rect id="矩形 24" width="7.000000" height="7.000000" x="35.000000" y="28.000000" fill="rgb(40,160,233)" />
	<rect id="矩形 23" width="7.000000" height="7.000000" x="42.000000" y="28.000000" fill="rgb(171,206,233)" />
	<rect id="矩形 22" width="7.000000" height="7.000000" x="49.000000" y="28.000000" fill="rgb(17,49,72)" />
	<rect id="矩形 21" width="7.000000" height="7.000000" x="0.000000" y="35.000000" fill="rgb(156,99,70)" />
	<rect id="矩形 21" width="7.000000" height="7.000000" x="0.000000" y="35.000000" fill="rgb(26,21,15)" />
	<rect id="矩形 20" width="7.000000" height="7.000000" x="7.000000" y="35.000000" fill="rgb(226,226,226)" />
	<rect id="矩形 19" width="7.000000" height="7.000000" x="14.000000" y="35.000000" fill="rgb(183,130,114)" />
	<rect id="矩形 19" width="7.000000" height="7.000000" x="14.000000" y="35.000000" fill="rgb(11,36,251)" />
	<rect id="矩形 66" width="7.000000" height="7.000000" x="21.000000" y="35.000000" fill="rgb(255,189,105)" />
	<rect id="矩形 67" width="7.000000" height="7.000000" x="28.000000" y="35.000000" fill="rgb(255,189,105)" />
	<rect id="矩形 16" width="7.000000" height="7.000000" x="35.000000" y="35.000000" fill="rgb(0,147,233)" />
	<rect id="矩形 15" width="7.000000" height="7.000000" x="42.000000" y="35.000000" fill="rgb(152,187,214)" />
	<rect id="矩形 14" width="7.000000" height="7.000000" x="49.000000" y="35.000000" fill="rgb(17,49,72)" />
	<rect id="矩形 72" width="7.000000" height="7.000000" x="0.000000" y="42.000000" fill="rgb(255,189,105)" />
	<rect id="矩形 71" width="7.000000" height="7.000000" x="7.000000" y="42.000000" fill="rgb(255,189,105)" />
	<rect id="矩形 70" width="7.000000" height="7.000000" x="14.000000" y="42.000000" fill="rgb(255,189,105)" />
	<rect id="矩形 69" width="7.000000" height="7.000000" x="21.000000" y="42.000000" fill="rgb(255,189,105)" />
	<rect id="矩形 76" width="7.000000" height="7.000000" x="21.000000" y="49.000000" fill="rgb(255,189,105)" />
	<rect id="矩形 68" width="7.000000" height="7.000000" x="28.000000" y="42.000000" fill="rgb(255,189,105)" />
	<rect id="矩形 68" width="7.000000" height="7.000000" x="28.000000" y="42.000000" fill="rgb(0,0,0)" />
	<rect id="矩形 7" width="7.000000" height="7.000000" x="35.000000" y="42.000000" fill="rgb(229,229,229)" />
	<rect id="矩形 6" width="7.000000" height="7.000000" x="42.000000" y="42.000000" fill="rgb(143,94,62)" />
	<rect id="矩形 6" width="7.000000" height="7.000000" x="42.000000" y="42.000000" fill="rgb(229,229,229)" />
	<rect id="矩形 5" width="7.000000" height="7.000000" x="49.000000" y="42.000000" fill="rgb(129,83,57)" />
	<rect id="矩形 5" width="7.000000" height="7.000000" x="49.000000" y="42.000000" fill="rgb(229,229,229)" />
	<rect id="矩形 73" width="7.000000" height="7.000000" x="0.000000" y="49.000000" fill="rgb(255,189,105)" />
	<rect id="矩形 74" width="7.000000" height="7.000000" x="7.000000" y="49.000000" fill="rgb(255,189,105)" />
	<rect id="矩形 75" width="7.000000" height="7.000000" x="14.000000" y="49.000000" fill="rgb(255,189,105)" />
	<rect id="矩形 1" width="7.000000" height="7.000000" x="0.000000" y="0.000000" fill="rgb(73,53,29)" />
</svg>
