<svg viewBox="0 0 24 24" xmlns="http://www.w3.org/2000/svg" xmlns:xlink="http://www.w3.org/1999/xlink" width="24.000000" height="24.000000" fill="none">
	<rect id="容器 30" width="24.000000" height="24.000000" x="0.000000" y="0.000000" fill="rgb(0,0,0)" fill-opacity="0.300000012" />
	<path id="" d="M8.90371 8.47559C9.15664 7.75553 9.58161 7.19727 10.1786 6.80078C10.7756 6.4043 11.466 6.20605 12.2499 6.20605C12.8196 6.20605 13.3254 6.31087 13.7675 6.52051C14.2118 6.73014 14.5593 7.02409 14.81 7.40234C15.0629 7.7806 15.1894 8.20785 15.1894 8.68408C15.1894 9.01904 15.1267 9.3221 15.0014 9.59326C14.876 9.86442 14.7222 10.098 14.5399 10.2939C14.3576 10.4899 14.1127 10.7235 13.8051 10.9946C13.4975 11.2658 13.2525 11.4993 13.0702 11.6953C12.8879 11.8913 12.733 12.1271 12.6054 12.4028C12.48 12.6763 12.4174 12.9862 12.4174 13.3325C12.4174 13.5011 12.4413 13.7153 12.4892 13.9751L11.3134 13.9751C11.2017 13.6128 11.1459 13.2493 11.1459 12.8848C11.1459 12.5111 11.2086 12.1818 11.3339 11.897C11.4592 11.6121 11.613 11.3695 11.7953 11.1689C11.9776 10.9684 12.218 10.7417 12.5165 10.4888C12.8811 10.172 13.1488 9.89746 13.3197 9.66504C13.4929 9.43034 13.5795 9.15462 13.5795 8.83789C13.5795 8.45508 13.4439 8.14974 13.1728 7.92188C12.9039 7.69173 12.5495 7.57666 12.1098 7.57666C11.6632 7.57666 11.2667 7.70768 10.9203 7.96973C10.5762 8.23177 10.296 8.62826 10.0795 9.15918L8.90371 8.47559ZM12.0141 17.1538C11.7702 17.1538 11.5595 17.0627 11.3817 16.8804C11.204 16.6981 11.1151 16.4862 11.1151 16.2446C11.1151 15.9826 11.204 15.7604 11.3817 15.5781C11.5595 15.3958 11.7702 15.3047 12.0141 15.3047C12.2738 15.3047 12.4926 15.3958 12.6703 15.5781C12.848 15.7604 12.9369 15.9826 12.9369 16.2446C12.9369 16.4862 12.848 16.6981 12.6703 16.8804C12.4926 17.0627 12.2738 17.1538 12.0141 17.1538Z" fill="rgb(0,0,0)" fill-opacity="0.600000024" fill-rule="nonzero" />
</svg>
